<?xml version="1.0" encoding="UTF-8"?>
<svg id="Layer_1" data-name="Layer 1" xmlns="http://www.w3.org/2000/svg" viewBox="0 0 1509.79 1538.38">
  <defs>
    <style>
      .cls-1 {
        fill: #2b2c2b;
      }

      .cls-2 {
        fill: #010202;
      }

      .cls-3 {
        fill: #020302;
      }

      .cls-4 {
        fill: #6cccbd;
      }

      .cls-5 {
        fill: #030303;
      }
    </style>
  </defs>
  <path class="cls-5" d="M828.83,8.52c1.02,1.2,2.47,4.81,3.05,6.46,5.9,16.84,8.69,37,13.76,54.24.52,1.78,2.57,8.88,3.5,9.5l71.37,14.56,37.65-49.57c4.85-4.53,7.12-9.26,14.49-9.56,9.26-.38,42.64,12.04,53.05,16.03,19.49,7.47,45.62,18.99,63.51,29.49,6.04,3.55,11.05,6.36,11.96,14.05-.6,23.78-5,47.41-7.61,71.06l60.27,41.28,57.65-34.02c13.37-7.31,22.99,3.7,32.7,11.67,21.52,17.67,46.56,42.21,64.5,63.5,5.83,6.92,14.8,15.61,13.25,25.27-9.87,21.21-21.87,41.48-33.05,62.06l-.25,2.62,39.18,57.13c20.5-1.81,41.59-7.91,61.86-10.06,10.95-1.16,14.9-.64,21.32,8.64,18.76,27.09,38.34,73.41,49.18,104.82,3.38,9.8,8.23,18.65.83,27.86-17.91,14.17-33.82,30.99-52.72,43.82l-.13,1.23c9.99,32.85,16.91,66.54,22.13,100.48l64.15,17.35c11.18,4.2,11.45,19.79,12.71,30.29,2.89,24.1,3.2,54.65,2,78.98-.45,9.12-2.57,37.12-5.79,44.2-1.63,3.57-5.71,7.19-9.39,8.62l-63.84,17.35c-5.53,33.57-11.34,67.27-21.77,99.7.19.98,4.61,5.04,5.79,6.15,13.06,12.36,29.3,23.62,42.03,35.97,8,7.77,8.98,12.53,6.25,23.27-8.15,32.01-29.21,76.37-45.74,105.26-5.5,9.62-9.55,21.2-23.01,18.96l-64.84-11.84c-2.14.52-21.57,31.52-24.87,36.17-4.72,6.67-13.04,14.87-16.68,21.36-.6,1.07-1.43,1.95-.66,3.27l32.02,56.06c5.94,13.08-4.22,21.88-11.98,31.01-18.93,22.28-53.78,57.24-77.6,73.4-9.62,6.52-13.18,7.11-23.58,1.76-18.11-9.33-35.49-23.67-53.4-33.71h-1.87s-59.11,39.24-59.11,39.24l9.04,62.81c2.57,14.5-7.39,19.81-18.31,25.67-24.14,12.95-79.79,38.35-105.63,42.37-8.15,1.27-11.84.39-17.57-5.53-13.18-13.61-24.38-36.32-37.51-50.48-1.11-1.2-2.37-3.31-4.25-3.32l-68.61,13.89-16.06,65.44c-1.15,3.78-5.58,8.43-9.31,9.69-4.33,1.46-15.3,2.53-20.19,2.81-27.86,1.58-65.12,1.43-93.03-.05-5.53-.29-16.37-1.04-21.34-2.66-1.74-.57-4.35-2.09-5.66-3.34-5.03-4.78-10-28.08-12.02-35.98-2.9-11.33-5.06-22.92-7.67-34.33l-1.5-1.5-69.64-14.08c-15.4,18.72-27.65,40.21-44.34,57.73-4.82,2.98-7.87,2.45-13.18,1.51-25.73-4.55-92.16-32.94-114.46-47.54-6.19-4.05-9.43-8.34-9.63-16.15l8.73-67.46-60.13-39-53.01,33.98c-12.06,6.17-15.12,4.88-25.56-2.77-23.43-17.16-52.29-45.5-71.62-67.38-4.73-5.36-17.25-18.47-18.25-24.76-1.07-6.7,2.46-11.56,5.25-17.28,8.37-17.18,19.28-33.16,27.78-50.29l.02-2.38-40.86-58.13-67.97,11.86c-11.31.07-15.05-8.77-19.83-17.15-15.32-26.82-41.04-79.44-47.13-108.86-2.26-10.93-.15-14.07,7.49-21.53l45.08-38.91.86-5.98c-9.46-31.46-15.65-63.89-20.07-96.45-7.2-2.29-14.35-4.8-21.64-6.86-13.33-3.77-31.23-6.17-43.5-11.5-11.59-5.04-11.4-17.25-12.71-28.29-3.86-32.51-5.26-88.27,2.25-119.74,2.48-10.4,7.6-12.12,16.75-15.25,18.47-6.3,38.68-9.21,57.25-15.5l1.3-1.92c4.74-33.32,11.37-66.41,21.48-98.5l-49.56-42.56c-8.26-8.47-7.7-12.59-4.49-23.54,9.43-32.14,29.56-76.33,47-105,7.16-11.77,9.21-16.69,24.5-15.47,19.02,1.51,40.13,8.37,59.17,9.85,1.24.1,3.19.6,4.19-.03l39.21-56.47c.16-1.87-9.77-20.04-11.53-23.39-5.78-11-16.52-26.59-20.73-37.27-5.55-14.07,10.82-28.85,19.7-38.73,15.21-16.93,52.87-55.39,71.6-65.4,6.23-3.33,9.71-4.62,16.61-1.77l57.38,34.69,2.89.02,58.95-40.2-7.95-62.79c-.85-16.9,2.48-17.56,16.02-25.06,27.78-15.4,62.77-29.74,93.26-38.74,10.18-3.01,20.52-8.39,29.68-.14l40.55,52.44,2.98,1.89,70.43-14.06,17.35-66.16c4.51-10.65,20.07-11.18,30.25-11.75,26.89-1.52,64.24-1.61,91.08,0,6.91.41,23.72,2.1,28.14,7.35ZM1063.5,185.86c-3.78-3.78-4.6-6.9-4.4-12.18.75-20.31,6.54-43.44,8.09-64.02l-.53-3.46c-26.65-16.14-56-26.53-85.27-36.84l-2.71.86-38.02,51.01c-5.73,6.11-9.21,7.84-17.76,6.73-13.42-1.74-30.51-7.64-44.55-10.45-14.79-2.96-31.07-4.35-45.43-7.57-7.85-1.76-10.11-4.52-13.07-11.93-7.02-17.62-9.51-40.26-15.41-58.59-.47-1.46-.96-2.92-1.77-4.23-31-5.54-63.08-4.64-94.4-.85-5.99,18.99-9.77,38.86-15.63,57.87-1.26,4.09-3.13,11.22-6.26,14.02-5.94,5.3-30.21,6.59-39.42,8.3-8.34,1.55-16.7,3.26-25.01,4.99-9.75,2.04-34.3,10.17-42.27,8.65-2.04-.39-4.16-2.52-6.23-3.27l-42.93-55.51c-30.15,9.4-59.76,20.43-86.9,36.81l-.53,2.46,8.69,66.23c-.42,8.41-4.92,11.23-11.11,15.34-17.92,11.9-36.75,22.14-54.43,34.57-9.75,6.85-21.06,21.61-34.07,15.89l-59.7-34.35c-25.09,18.86-47.44,41.12-67.33,65.36,11.11,21.79,24.66,42.52,33.97,65.13.65,9.03-14.42,24.5-19.78,32.07-11.82,16.71-22.32,34.3-33.96,51.04-6.36,9.15-9.51,8.79-20.76,8.31l-60.78-9.93c-17.48,28.3-31.51,59.39-41.53,91.19l49.4,42.66c2.47,2.81,5.01,5.7,5.48,9.52,1.43,11.68-7.66,31.13-10.73,43.32-3.44,13.65-6.33,29.09-9,43-2.4,12.49-3.13,29.93-6.76,41.24-1.54,4.78-6.02,8.61-10.55,10.45l-61.77,16.72c-6.53,34.35-4.75,70.02-1.13,104.73l63.2,18.3c3.41,1.55,8.27,4.6,9.93,8.07,3.39,7.05,4.4,27.8,6.08,36.92,2.16,11.72,4.54,24.21,7.2,35.8,3.45,15.05,13.44,40.18,14.45,53.63.41,5.5-2.32,9.18-5.9,12.89l-49.08,42.17c-.58,2.45,8.79,28.79,10.57,33.28,5.31,13.39,13.01,29.38,19.96,42.04,1.25,2.28,8.69,15.99,9.51,16.49,1.61.98,4.52.58,6.41.38,17.87-1.81,38.15-8.65,56.12-9.88,16.77-1.15,14.53,1.46,22.06,12.9,6.19,9.39,12.51,18.82,19,28,8.07,11.4,28.04,33.3,32.6,44.4,5.16,12.54-6.58,24.43-12.36,35.02-6.6,12.09-13.06,24.25-19.64,36.34-.08,1.42,2.31,4.12,3.3,5.34,6.85,8.36,16.76,18.85,24.47,26.51,4.38,4.35,37.7,35.59,40.37,35.34,20.83-11.96,40.09-26.87,61.63-37.44,1.43-.57,2.8-.43,4.28-.22,7.16,1,34.7,23.23,43.25,28.83,12.6,8.24,32.07,17.09,42.85,26.15,6.35,5.34,5.91,10.42,5.71,18.37l-8.06,61.75c27.23,16.19,57.27,27.08,87.42,36.58,13.79-15.61,24.74-36.13,38.63-51.34,5.41-5.92,9.02-8.08,17.35-7.41,14.09,1.14,35.47,8.57,50.41,11.58,12.41,2.5,28.9,3.2,40.42,6.58,10.85,3.18,11.61,10.87,14.5,20.5,5.41,18.05,8.51,36.92,13.38,55.12,31.96,2.78,64.12,4.32,95.97-.34,6.1-19.03,8.68-39.31,14.65-58.35,3.51-11.18,5.88-15.62,18.04-17.96,7.99-1.54,17.28-1.98,25.45-3.55,18.9-3.63,42.46-11.53,60.57-13.43,9.03-.95,11.77.23,17.74,6.71l37.66,51.87c31.09-7.8,59.98-22.2,88.72-35.98-3.03-23.71-7.22-47.5-8.82-71.32.63-4.01,4.81-8.62,7.99-11,16.93-12.66,39.87-23.94,58.26-36.74,9.86-6.87,21.09-20.9,34.07-14.71l57.27,35.72c2.04.19,27.79-22.96,31.35-26.32,8.06-7.58,16.58-15.8,23.96-24,2.44-2.71,12.96-14.51,12.96-17.01l-30.11-54.82c-2.85-7.21-4.19-11.49-.25-18.61,8-14.45,25.43-33.56,35.66-48.34,4.45-6.42,19.2-32.58,24.72-34.28,3.25-1,7.16-.29,10.54-.43l62.86,10.88c17.77-28.76,31.31-60.09,41.73-92.24-4.75-2.91-8-7.5-12.06-11.16-11.11-10.02-24.96-19.02-35.54-29.46-7.77-7.66-8.95-10.13-7.02-21.08,1.84-10.45,6.82-21.94,9.48-32.52,7.05-28.07,12.09-56.37,15.91-85.09,1.75-6,6.58-9.7,12.18-11.82l60.72-17.77c1.03-.9,3-18.33,3.25-21.26,1.61-19.22,1.58-41.68,0-60.98-.34-4.17-1.48-19.12-3.52-21.48-.66-.76-1.5-1.25-2.45-1.55l-59-16c-13.84-5.55-11.97-23.05-14.34-35.66-2.67-14.2-4.98-28.77-8.15-42.85-3.57-15.84-12.13-35.92-14.3-50.7-2.47-16.85,8.45-18.74,17.75-29.77l36.52-30.52c1.11-2.43-3.53-13.81-4.76-17.22-6.05-16.69-14.95-36.12-23.03-51.97-1.47-2.88-11.13-21.12-12.13-21.86-1.51-1.12-2.23-.91-3.91-.86-16.97.53-38.62,8.63-56.18,9.92-4.27.31-12.03.58-15.75-1.21-4.51-2.18-16.9-24.28-20.91-30.09-10.54-15.25-23.74-30.27-33.63-45.37-3.47-5.3-8.19-10.25-5.5-17.14l33.34-62.61c-.18-2.23-10.64-13.52-13-16.1-10.97-11.98-25.6-26.61-38.01-36.99-3.25-2.72-13.73-12.06-17.27-11.35-17.51,8.84-34.31,21.72-51.72,30.38-12.49,6.21-14.01,6.1-25.75-1.29-13.5-8.5-26.23-20.21-39.96-29.04-9.25-5.95-28.99-14.57-35.95-21.55Z"/>
  <path class="cls-1" d="M1063.5,185.86c6.96,6.97,26.7,15.6,35.95,21.55,13.73,8.83,26.46,20.54,39.96,29.04,11.74,7.39,13.26,7.51,25.75,1.29,17.41-8.66,34.21-21.54,51.72-30.38,3.54-.71,14.02,8.63,17.27,11.35,12.41,10.38,27.04,25.01,38.01,36.99,2.36,2.58,12.82,13.87,13,16.1l-33.34,62.61c-2.69,6.88,2.02,11.83,5.5,17.14,9.89,15.1,23.09,30.12,33.63,45.37,4.01,5.8,16.4,27.9,20.91,30.09,3.72,1.8,11.48,1.53,15.75,1.21,17.56-1.29,39.22-9.39,56.18-9.92,1.68-.05,2.4-.26,3.91.86,1,.74,10.67,18.98,12.13,21.86,8.08,15.84,16.99,35.28,23.03,51.97,1.24,3.41,5.87,14.79,4.76,17.22l-36.52,30.52c-9.3,11.03-20.22,12.92-17.75,29.77,2.17,14.78,10.72,34.86,14.3,50.7,3.17,14.08,5.49,28.65,8.15,42.85,2.37,12.61.5,30.11,14.34,35.66l59,16c.95.3,1.79.79,2.45,1.55,2.04,2.37,3.17,17.32,3.52,21.48,1.58,19.3,1.61,41.76,0,60.98-.25,2.94-2.22,20.36-3.25,21.26l-60.72,17.77c-5.6,2.12-10.43,5.82-12.18,11.82-3.82,28.72-8.86,57.02-15.91,85.09-2.66,10.58-7.63,22.07-9.48,32.52-1.93,10.94-.74,13.42,7.02,21.08,10.58,10.44,24.43,19.44,35.54,29.46,4.07,3.67,7.32,8.25,12.06,11.16-10.42,32.15-23.96,63.48-41.73,92.24l-62.86-10.88c-3.38.15-7.29-.57-10.54.43-5.52,1.7-20.27,27.86-24.72,34.28-10.23,14.78-27.66,33.89-35.66,48.34-3.94,7.12-2.6,11.41.25,18.61l30.11,54.82c0,2.5-10.51,14.3-12.96,17.01-7.38,8.2-15.9,16.42-23.96,24-3.56,3.35-29.31,26.5-31.35,26.32l-57.27-35.72c-12.98-6.2-24.21,7.84-34.07,14.71-18.39,12.8-41.33,24.08-58.26,36.74-3.18,2.38-7.36,6.99-7.99,11,1.6,23.82,5.79,47.61,8.82,71.32-28.74,13.78-57.62,28.18-88.72,35.98l-37.66-51.87c-5.96-6.48-8.7-7.66-17.74-6.71-18.1,1.9-41.67,9.8-60.57,13.43-8.17,1.57-17.46,2.01-25.45,3.55-12.15,2.34-14.53,6.78-18.04,17.96-5.97,19.03-8.55,39.31-14.65,58.35-31.84,4.66-64,3.12-95.97.34-4.87-18.2-7.97-37.06-13.38-55.12-2.89-9.63-3.65-17.32-14.5-20.5-11.52-3.38-28.01-4.08-40.42-6.58-14.95-3.01-36.32-10.45-50.41-11.58-8.32-.67-11.94,1.49-17.35,7.41-13.89,15.21-24.85,35.72-38.63,51.34-30.15-9.5-60.19-20.39-87.42-36.58l8.06-61.75c.2-7.95.64-13.03-5.71-18.37-10.78-9.06-30.25-17.91-42.85-26.15-8.55-5.59-36.08-27.83-43.25-28.83-1.48-.21-2.85-.34-4.28.22-21.54,10.57-40.8,25.48-61.63,37.44-2.67.24-35.99-30.99-40.37-35.34-7.71-7.66-17.62-18.15-24.47-26.51-1-1.22-3.39-3.92-3.3-5.34,6.58-12.09,13.05-24.26,19.64-36.34,5.77-10.58,17.52-22.47,12.36-35.02-4.57-11.1-24.54-33-32.6-44.4-6.49-9.17-12.82-18.61-19-28-7.54-11.44-5.3-14.05-22.06-12.9-17.97,1.23-38.25,8.07-56.12,9.88-1.89.19-4.8.59-6.41-.38-.81-.49-8.25-14.2-9.51-16.49-6.94-12.66-14.64-28.65-19.96-42.04-1.78-4.48-11.15-30.82-10.57-33.28l49.08-42.17c3.58-3.71,6.31-7.39,5.9-12.89-1-13.44-10.99-38.58-14.45-53.63-2.66-11.59-5.03-24.08-7.2-35.8-1.68-9.12-2.69-29.87-6.08-36.92-1.67-3.46-6.52-6.52-9.93-8.07l-63.2-18.3c-3.62-34.71-5.4-70.38,1.13-104.73l61.77-16.72c4.53-1.84,9.02-5.67,10.55-10.45,3.64-11.3,4.36-28.75,6.76-41.24,2.67-13.91,5.56-29.34,9-43,3.07-12.19,12.16-31.64,10.73-43.32-.47-3.82-3.01-6.71-5.48-9.52l-49.4-42.66c10.01-31.8,24.05-62.89,41.53-91.19l60.78,9.93c11.25.48,14.4.84,20.76-8.31,11.63-16.74,22.14-34.33,33.96-51.04,5.35-7.57,20.43-23.04,19.78-32.07-9.32-22.6-22.87-43.34-33.97-65.13,19.89-24.23,42.24-46.49,67.33-65.36l59.7,34.35c13.01,5.71,24.32-9.04,34.07-15.89,17.68-12.43,36.52-22.67,54.43-34.57,6.19-4.11,10.7-6.93,11.11-15.34l-8.69-66.23.53-2.46c27.14-16.38,56.75-27.41,86.9-36.81l42.93,55.51c2.07.75,4.19,2.88,6.23,3.27,7.97,1.52,32.52-6.61,42.27-8.65,8.3-1.73,16.67-3.44,25.01-4.99,9.21-1.71,33.47-2.99,39.42-8.3,3.13-2.79,5-9.93,6.26-14.02,5.86-19.01,9.64-38.88,15.63-57.87,31.32-3.79,63.4-4.69,94.4.85.81,1.31,1.3,2.77,1.77,4.23,5.91,18.33,8.39,40.97,15.41,58.59,2.95,7.42,5.22,10.17,13.07,11.93,14.36,3.22,30.64,4.61,45.43,7.57,14.04,2.81,31.13,8.71,44.55,10.45,8.55,1.11,12.03-.62,17.76-6.73l38.02-51.01,2.71-.86c29.28,10.31,58.63,20.69,85.27,36.84l.53,3.46c-1.54,20.58-7.33,43.72-8.09,64.02-.2,5.28.63,8.4,4.4,12.18ZM1227.72,1197.8c260.55-300.88,194.28-761.62-138.27-977.39C787.72,24.62,395.62,130.44,215.33,433.91c-164.78,277.35-104.79,631.67,142.33,837.28,264.68,220.22,646.05,185.29,870.06-73.39Z"/>
  <path class="cls-2" d="M1227.72,1197.8c-224.01,258.68-605.38,293.61-870.06,73.39C110.54,1065.58,50.56,711.26,215.33,433.91,395.62,130.44,787.72,24.62,1089.45,220.4c332.55,215.78,398.82,676.52,138.27,977.39ZM1175.79,332.56c-240.52-242.86-618.01-235.92-852.16,11.64-247.95,262.14-215.75,688.46,67.03,910.99,271.99,214.04,652.6,151.82,850.29-127.67,172.59-243.99,144.75-583-65.16-794.96Z"/>
  <path class="cls-1" d="M1175.79,332.56c209.92,211.96,237.75,550.97,65.16,794.96-197.7,279.49-578.31,341.7-850.29,127.67-282.78-222.53-314.98-648.85-67.03-910.99,234.15-247.56,611.65-254.49,852.16-11.64ZM761.79,218.86c4.62-4.64,1.55-13.54-4.17-14.62-5.21-.98-19-.3-25.02-.06-267.51,10.53-484.78,222.77-522.21,483.79-3.25,22.7-8.18,61.83-5.3,83.8,1.08,8.28,14.83,8.67,16.84,1.74,1.34-4.6-.11-16.12.16-21.84,13.55-279.47,219.88-510.55,503.5-529.5,6.83-.46,14.15.46,21.03.03,4.01-.25,12.61-.79,15.16-3.34ZM761.86,283.93c3.6-3.6,2.82-12.98-2.43-14.51-4.15-1.21-23.19-.45-28.83-.25-221.1,7.9-413.03,184.29-454.18,398.82-5.48,28.55-12.08,74.38-9.34,102.78.96,9.9,14.87,9.53,16.85,2.73,1.34-4.6-.11-16.12.16-21.84,11.57-238.72,186.61-441.05,428.55-463.45,13.95-1.29,30.61-.21,43.93-2.07,1.23-.17,4.47-1.4,5.29-2.22ZM492.56,448.63c67.43-57.9,151.07-91.54,240.09-97.41,9.82-.65,36.59,4.64,31.04-13.06-2.16-6.88-18.82-5.23-25.09-4.99-221.77,8.68-401.11,193.85-409.5,414.5-.18,4.8-.73,23.41.56,26.52,2.45,5.89,13.81,5.68,16.27-.68.99-34.67,3.77-68.68,11.48-102.52,19.52-85.68,68.82-165.4,135.15-222.35ZM522.72,483.8c-70.41,60.67-116.06,140.02-128.44,233.06-1.97,14.82-5.07,40.67-3.19,54.91,1.13,8.54,16.01,8.92,17.84.74-4.77-178.22,133.3-337.21,310.83-355.17,11.97-1.21,27.77.21,38.67-2.33,7.55-1.76,7.75-14.15.76-16.34-4.22-1.32-21.19-.75-26.59-.49-75.1,3.64-153.47,37.02-209.88,85.62ZM947.49,567.86c-140.75-134.28-367.95-88.14-447.21,87.99-105.12,233.61,141.51,475.16,372.21,366.21,177.72-83.93,218.41-317.38,75-454.2ZM1025.72,1017.8c54.71-60.96,89.53-143.76,93.41-226.09.25-5.23.94-22.87-.2-26.78-1.76-6.03-11.52-7.21-15.79-1.21-3.86,5.41-1.53,22.42-1.96,30.04-10.19,181.09-166,331.18-348.33,329.67-10.28,4.25-8.69,16.56,2.79,17.78,5.53.59,17.85-.58,23.99-1.01,95.13-6.62,183-52.1,246.09-122.41ZM1179.86,762.49c-1.15-1.39-6.05-3.25-7.98-3.06-11.41,1.1-7.21,20.14-7.7,28.33-11.83,201.27-155.2,367.48-356.65,396.35-19.08,2.73-38.29,2.94-57.49,4.53-6.03,3.36-5.09,12.42.54,15.62,2.87,1.63,11.3,1.11,15.1.99,228.39-7.1,412.56-197.73,415.46-425.54.06-4.88,2.54-12.59-1.29-17.24ZM1109.72,1112.8c80.26-87.14,130.76-205.72,134.46-325.04.26-8.36,3.07-31.49-11.04-28.12-10.72,2.56-6.49,20.33-6.96,29.12-8,150.4-79.09,287.8-201.73,375.27-79.8,56.92-174.17,86.99-272.6,88.4-9.02,2.54-6.52,15.74,1.73,16.84,16.44,2.18,47.72-1.82,64.91-4.2,110.41-15.25,216.02-70.63,291.22-152.28ZM1193.76,1109.85c72.55-98.29,112.7-220.11,112.15-342.91-1.52-7.59-11.88-10.35-16.23-3.69-3.03,4.63-1.21,20.79-1.55,27.45-5.33,102.87-36.3,200.39-92.97,286.03-97.28,147.02-265.76,239.62-443.31,239.69-7.94,1.77-7.97,15.35.85,16.73,15.53,2.43,46.34-1.15,62.82-3.07,149.86-17.41,289.15-99.53,378.25-220.24Z"/>
  <path class="cls-5" d="M947.49,567.86c143.41,136.82,102.72,370.27-75,454.2-230.7,108.95-477.33-132.6-372.21-366.21,79.26-176.13,306.46-222.28,447.21-87.99ZM965.86,894.94c4.37-3.49,18.05-35.96,20.55-42.96,75.4-210.69-151.65-406.54-347.94-298.94-171.02,93.74-171.85,337.26-1,431.34,109.69,60.4,254.63,26.5,321.97-79.43,2.43-3.82,2.81-8.41,3.11-8.79.69-.88,2.56-.63,3.31-1.23Z"/>
  <path class="cls-3" d="M1193.76,1109.85c-89.1,120.71-228.39,202.83-378.25,220.24-16.48,1.91-47.28,5.5-62.82,3.07-8.81-1.38-8.78-14.95-.85-16.73,177.55-.08,346.02-92.67,443.31-239.69,56.67-85.64,87.64-183.16,92.97-286.03.34-6.66-1.48-22.82,1.55-27.45,4.35-6.66,14.7-3.9,16.23,3.69.56,122.79-39.6,244.62-112.15,342.91Z"/>
  <path class="cls-3" d="M761.79,218.86c-2.54,2.55-11.15,3.1-15.16,3.34-6.88.43-14.2-.49-21.03-.03-283.62,18.95-489.95,250.03-503.5,529.5-.28,5.71,1.18,17.23-.16,21.84-2.02,6.93-15.76,6.54-16.84-1.74-2.87-21.97,2.05-61.1,5.3-83.8,37.42-261.03,254.69-473.27,522.21-483.79,6.02-.24,19.8-.92,25.02.06,5.72,1.08,8.79,9.99,4.17,14.62Z"/>
  <path class="cls-3" d="M1109.72,1112.8c-75.2,81.64-180.82,137.02-291.22,152.28-17.19,2.37-48.47,6.38-64.91,4.2-8.26-1.09-10.76-14.29-1.73-16.84,98.43-1.41,192.8-31.48,272.6-88.4,122.64-87.47,193.73-224.88,201.73-375.27.47-8.79-3.76-26.56,6.96-29.12,14.11-3.37,11.3,19.76,11.04,28.12-3.7,119.32-54.2,237.9-134.46,325.04Z"/>
  <path class="cls-3" d="M761.86,283.93c-.81.81-4.06,2.05-5.29,2.22-13.31,1.86-29.98.78-43.93,2.07-241.93,22.4-416.98,224.73-428.55,463.45-.28,5.71,1.18,17.23-.16,21.84-1.98,6.8-15.9,7.17-16.85-2.73-2.74-28.4,3.86-74.23,9.34-102.78,41.15-214.53,233.08-390.91,454.18-398.82,5.65-.2,24.68-.96,28.83.25,5.25,1.53,6.03,10.91,2.43,14.51Z"/>
  <path class="cls-3" d="M492.56,448.63c-66.33,56.95-115.63,136.67-135.15,222.35-7.71,33.84-10.49,67.85-11.48,102.52-2.46,6.36-13.82,6.57-16.27.68-1.29-3.11-.75-21.72-.56-26.52,8.39-220.65,187.73-405.82,409.5-414.5,6.27-.25,22.92-1.9,25.09,4.99,5.56,17.7-21.22,12.42-31.04,13.06-89.02,5.87-172.66,39.51-240.09,97.41Z"/>
  <path class="cls-3" d="M1179.86,762.49c3.84,4.65,1.36,12.35,1.29,17.24-2.9,227.81-187.07,418.44-415.46,425.54-3.8.12-12.23.64-15.1-.99-5.63-3.2-6.57-12.27-.54-15.62,19.19-1.59,38.41-1.8,57.49-4.53,201.45-28.87,344.82-195.08,356.65-396.35.48-8.19-3.72-27.24,7.7-28.33,1.93-.19,6.83,1.68,7.98,3.06Z"/>
  <path class="cls-3" d="M522.72,483.8c56.41-48.61,134.78-81.98,209.88-85.62,5.4-.26,22.38-.83,26.59.49,6.99,2.19,6.79,14.58-.76,16.34-10.89,2.54-26.7,1.12-38.67,2.33-177.54,17.95-315.61,176.95-310.83,355.17-1.83,8.18-16.71,7.8-17.84-.74-1.88-14.24,1.22-40.09,3.19-54.91,12.38-93.04,58.03-172.39,128.44-233.06Z"/>
  <path class="cls-3" d="M1025.72,1017.8c-63.09,70.31-150.96,115.79-246.09,122.41-6.15.43-18.46,1.59-23.99,1.01-11.47-1.22-13.07-13.53-2.79-17.78,182.33,1.51,338.14-148.58,348.33-329.67.43-7.61-1.9-24.63,1.96-30.04,4.27-6,14.03-4.83,15.79,1.21,1.14,3.91.44,21.55.2,26.78-3.88,82.33-38.7,165.13-93.41,226.09Z"/>
  <path class="cls-4" d="M965.86,894.94c-.75.6-2.61.35-3.31,1.23-.3.38-.68,4.97-3.11,8.79-67.35,105.93-212.28,139.83-321.97,79.43-170.85-94.08-170.02-337.6,1-431.34,196.29-107.6,423.34,88.25,347.94,298.94-2.5,7-16.19,39.46-20.55,42.96ZM823.73,824.81c38.54-48.07,15.77-123.37-43.59-140.09-69.96-19.71-128.95,43.42-108.26,112.26,19.4,64.55,108.33,82.12,151.85,27.83Z"/>
  <path class="cls-5" d="M823.73,824.81c-43.53,54.29-132.45,36.72-151.85-27.83-20.69-68.85,38.31-131.97,108.26-112.26,59.36,16.72,82.13,92.02,43.59,140.09ZM747.92,714.49c-67.41,8.15-58.99,114.28,10.71,109.7,73.39-4.82,63.47-118.68-10.71-109.7Z"/>
</svg>