<?xml version="1.0" encoding="UTF-8"?>
<svg id="Layer_1" xmlns="http://www.w3.org/2000/svg" version="1.1" viewBox="0 0 2048 2048">
  <!-- Generator: Adobe Illustrator 29.8.1, SVG Export Plug-In . SVG Version: 2.1.1 Build 2)  -->
  <defs>
    <style>
      .st0 {
        fill: #c3c3c3;
      }

      .st1 {
        fill: #e81e25;
      }
    </style>
  </defs>
  <path d="M1095,558v80c230.1,30.5,428.7,197.7,505.3,415.2,17.2,48.8,29,102.6,33.7,154.3,1.2,12.7,3.8,41.9,0,53-2.5,7.4-13.5,19.5-21.5,19.5h-517.5v57h448.5c85.9,7.7,145,70.9,177.9,146,17.2,39.2,39.5,91,46.2,132.8,3.9,24.5,8.8,53-23.2,58.3l-1480.8-.3c-18.9-5-23.7-19.1-22.7-37.3,2.5-45,23.2-92.3,40.5-133.5,35-83.2,87.4-156.3,184.9-166.1h451.5s0-57,0-57H399.5c-7.1,0-19.3-11.5-22-18-4.5-10.9-1.5-37.8-.5-50.5,23.2-290.4,250.2-533.8,539-573.5v-80h-136.5c-17.3,0-27.9-18.1-27.5-33.5,1.7-75.3,63-142.1,137.7-150.3,72.9,1,147-4.9,219.9-1.1,79.3,4.2,146.2,68.1,149.5,148.5.7,15.8-7.6,36.5-26.5,36.5h-137.5Z"/>
  <rect class="st0" x="973" y="559" width="66" height="74"/>
  <path class="st0" d="M1577,1223c-11.5-205.5-142.2-392.2-326.6-479.9-208.9-99.3-455.1-62.3-626.4,91.3-109.8,98.5-181.8,239.9-190,388.5h1143Z"/>
  <rect class="st0" x="973" y="1280" width="67" height="57"/>
  <path class="st0" d="M1710,1618c-3.4-20.2-11.1-39.1-18.5-58-22.3-56.7-44.6-118.7-100.8-150.2-27.2-15.3-45.5-15.9-76.2-16.3-267.1-3-534.8.4-802,.5-81.2,0-162.4-.6-244.1-.1-92.4,12.5-127,105.6-155.2,181.8-5.1,13.7-9.7,27.8-12.3,42.2h1409Z"/>
  <path d="M1632.6,591.4c81.9,76,142,178.5,167.9,287.6,2.7,11.4,9.1,33.4,6,44.1-6.7,23.4-38.3,27-51.4,7.3s-11-40.5-14.5-53.5c-45.2-167.9-178.2-309.4-345.7-359.3-22.7-6.8-59.1-7.6-56-40,1.1-11.5,11.3-22.6,22.7-24.2s39.3,6.7,52,10.5c80.2,24.1,157.7,70.9,218.8,127.7Z"/>
  <path d="M1333.8,579.3c18.6-2.5,75.8,20.2,94.6,28.9,113.3,52.5,202.4,154.5,238.9,274.1,4.3,14.2,14.5,48.5,11.2,61.8-5.8,23.8-37,28.8-50.9,8.9-6-8.5-8.8-31.8-11.8-43.2-32.8-123.1-131.3-227.6-252.9-266.1s-43.7-6.9-51.7-25.3c-7.2-16.8,4.9-36.8,22.6-39.1Z"/>
  <path class="st1" d="M897.1,415.1h220c49.7,0,90,40.3,90,90h0c0,11-9,20-20,20h-360c-11,0-20-9-20-20h0c0-49.7,40.3-90,90-90Z"/>
</svg>