<?xml version="1.0" encoding="UTF-8"?>
<svg id="Layer_1" data-name="Layer 1" xmlns="http://www.w3.org/2000/svg" viewBox="0 0 1005.85 1249.63">
  <defs>
    <style>
      .cls-1 {
        fill: #ebb026;
      }

      .cls-2 {
        fill: #cb272d;
      }

      .cls-3 {
        fill: #2a2723;
      }
    </style>
  </defs>
  <path class="cls-3" d="M72.03,446.05C48.92,372.9,24.24,300.21.27,227.32c-1.73-13.78,5.02-17.87,16.24-22.29,30.29-11.92,63.77-19.77,94.26-31.75,10.57-1.07,16.22,4.39,20.01,13.51,17.02,40.91,26.88,89.3,42.97,131.03l6.26,16.22-44.91-263.65c.39-9.28,4.53-14.82,13.53-17.24,31.61-3.3,65.88-15.99,97.01-18.99,11.7-1.13,19.45.58,22.92,12.84l15.56,87.94c23.96-.64,48.02-4.06,71.79-7.01l-4.89-106.39c1.14-8.89,7.57-14.88,16.51-15.49L470.58,0c8.96.9,14.23,6.85,15.36,15.64,2.17,16.83,2.08,34.85,3.1,51.9,2.88,48.21,5.45,96.88,7.98,145.02,1.07,20.46,1.14,41.06,3.01,61.49,17.12-1.26,21.84,5.34,24.73,20.77,2.66,14.22,3.39,29.01,6.29,43.22l1.98-10.51c8.28-102.71,10.53-206.34,20.03-308.97.63-6.78,4.29-15.66,11.69-17.31s14.91.5,21.81.77c26.57,1.06,59.01,1.06,84.98,5.02,5.32.81,13.11,3.24,15.05,8.95.52,1.55,2.02,9.04,2.11,10.69,1.5,25.79-5.88,58.38-5.65,84.87v15.48s64.44,11.03,64.44,11.03l19.03-93.04c5.58-17.89,20.9-12.38,34.71-9.67,24.77,4.86,61.12,11.01,84.25,18.75,9.03,3.02,12.99,7.45,13.48,17.29l-16.92,86.65c4.73-1.36,8.97-3.05,14.05-1.54,30.17,9.85,61.61,16.29,91.71,26.28,21.27,7.06,19.87,12.35,15.16,32.69-13.29,57.33-31.49,115.34-46.61,172.39-5.11,19.28-9.92,38.74-14.31,58.19h26.5c.49,0,4.66,2.78,5.52,3.48,6.81,5.54,6.51,11.74,5.85,19.89-28.56,194.15-55.23,388.97-83.04,582.97-6.29,43.86-11.34,89.57-18.99,133-8.04,45.63-42.55,71.01-88.87,62.2-23.09-4.39-46.48-11.56-69.76-16.24-135.24-27.22-278.76-28.18-414.39-2.98-29.55,5.49-59.79,15.42-88.78,20.22-39.81,6.59-77.51-18.62-84.56-58.52L28.05,467.54c-.52-5.54.2-13.04,4.32-17.15.66-.66,6.74-4.34,7.16-4.34h32.5ZM468.04,279.05l-13.16-243.34-2.25-1.61-67.6,3.95c.22,12.86.42,25.7.96,38.55,2.1,49.12,6.9,98.06,12.03,146.97l5.15,63.84,2.11,1.45,62.75-9.8ZM655.04,39.05c-23-1.71-46.23-3.29-69.07-4.57l-.93,2.07c-8.59,121.67-16.52,243.25-24.01,364.99-1.96,31.81-6.25,65.34-7.03,96.97-.27,11.01,4.25,26.66,5.88,38.21,2.83,20.09,5.18,40.27,8.18,60.33,3.17-1.34,1.67-5.6,2.11-8.38,24.14-150.67,51.1-300.98,75.36-451.64,6.5-25.91,8.23-57.22,9.51-84.49.21-4.48-.13-9.02.02-13.49ZM714.04,556.04c1.65.29,2.68-.78,3.91-1.58,25.57-16.58,48.12-45.3,64.4-70.6l81.51-399.54-1.54-2.08-68.3-13.21-79.99,487ZM288.03,550.05c-7-94.25-15.61-188.38-23.99-282.5-3.05-34.24-6.17-68.6-8.02-102.98l-16.18-92.82c-.16-.86-.63-1.28-1.44-1.56-3.26-1.13-45.7,7.63-52.58,9.16-2.14.48-15.71,3.32-15.81,4.29,25.53,140.2,47.19,281.18,72.48,421.45,2.73,8.36,33.78,38.78,41.99,44.01,1.23.78,1.95,1.27,3.53.96ZM600.03,612.05c2.56,2.51,34.86-10.38,39.97-12.53,8.47-3.55,17.79-7.82,25.88-12.12,2.82-1.5,9.9-4.59,10.9-7.1l67.19-406.9-.36-2.42-68.58-11.94-75.01,453ZM358.92,162.16l-69.9,5.88,28,325.51c2.29,26.6,3.2,53.48,6,80.01.17,1.61.27,3.51,1.71,4.54,10.55,4.78,20.41,10.94,30.93,15.8,5.19,2.4,40.06,17.26,42.35,15.14l-39.1-446.88ZM908.03,446.05l61.02-232.51-.99-2.02-65.42-18.54-67.61,253.07h73ZM181.03,446.05l-78.43-234.99-62.89,21.16-1.64,2.24,69.47,211.59h73.5ZM493.98,310.11l-69.01,9.56c13.18,101.21,28.26,202.15,42.2,303.24,23.73,4.32,47.88,3.08,71.86,1.14l-45.05-313.94ZM182.53,479.05c-38.99-.24-78,0-117,0-3.81,0,.14,12.43.4,14.6,20.82,172.98,49.33,345.58,73.98,518.02,7.94,55.54,12.93,115.03,23.25,169.75,4.05,21.48,19.91,36.27,42.37,35.62,196.61-53.28,404.26-51.96,601.01.1,21.66-1.56,33.83-15.41,38.2-35.89,12.43-58.35,13.59-123.05,26.16-181.84,19.03-145.57,41.44-290.69,62.01-435.99,3.55-25.09,9.4-55.36,11.06-80.02.23-3.48.07-3.97-3.37-4.39-19.78-2.44-48.51.55-69.22.67-11.22.06-22.69-.56-33.79-.67-4.62-.04-9.27-.05-13.88.21-11.23,19.31-22.48,38.88-37.15,55.85-122.68,142.03-349.8,162.46-501.83,55.8-27.15-19.04-56.84-45.78-76.1-72.9-8.98-12.65-15.19-27.46-24.24-39.74-.92-.1-1.59.83-1.85.83Z"/>
  <path class="cls-2" d="M182.53,479.05c.26,0,.93-.93,1.85-.83,9.05,12.28,15.26,27.09,24.24,39.74,19.26,27.13,48.95,53.86,76.1,72.9,152.02,106.66,379.15,86.23,501.83-55.8,14.67-16.98,25.92-36.54,37.15-55.85,4.61-.26,9.26-.25,13.88-.21,11.1.11,22.57.73,33.79.67,20.71-.12,49.44-3.11,69.22-.67,3.45.43,3.61.92,3.37,4.39-1.66,24.66-7.51,54.93-11.06,80.02-20.57,145.31-42.98,290.42-62.01,435.99-12.56,58.79-13.73,123.49-26.16,181.84-4.36,20.48-16.53,34.33-38.2,35.89-196.75-52.06-404.41-53.38-601.01-.1-22.46.65-38.32-14.13-42.37-35.62-10.31-54.73-15.31-114.22-23.25-169.75-24.65-172.45-53.16-345.04-73.98-518.02-.26-2.17-4.21-14.6-.4-14.6,39,0,78.01-.24,117,0Z"/>
  <path class="cls-1" d="M600.03,612.05l75.01-453,68.58,11.94.36,2.42-67.19,406.9c-1,2.51-8.08,5.6-10.9,7.1-8.09,4.3-17.42,8.56-25.88,12.12-5.11,2.14-37.4,15.04-39.97,12.53Z"/>
  <path class="cls-1" d="M358.92,162.16l39.1,446.88c-2.29,2.12-37.16-12.74-42.35-15.14-10.52-4.86-20.38-11.03-30.93-15.8-1.44-1.03-1.54-2.93-1.71-4.54-2.81-26.54-3.72-53.41-6-80.01l-28-325.51,69.9-5.88Z"/>
  <path class="cls-1" d="M714.04,556.04l79.99-487,68.3,13.21,1.54,2.08-81.51,399.54c-16.29,25.3-38.84,54.02-64.4,70.6-1.23.8-2.27,1.87-3.91,1.58Z"/>
  <path class="cls-1" d="M288.03,550.05c-1.59.31-2.3-.17-3.53-.96-8.22-5.23-39.26-35.64-41.99-44.01-25.29-140.27-46.95-281.25-72.48-421.45.1-.97,13.66-3.81,15.81-4.29,6.87-1.53,49.32-10.29,52.58-9.16.81.28,1.28.7,1.44,1.56l16.18,92.82c1.85,34.38,4.97,68.74,8.02,102.98,8.37,94.13,16.99,188.26,23.99,282.5Z"/>
  <path class="cls-1" d="M655.04,39.05c-.14,4.48.19,9.01-.02,13.49-1.28,27.27-3.01,58.58-9.51,84.49-24.26,150.66-51.22,300.97-75.36,451.64-.45,2.78,1.06,7.04-2.11,8.38-2.99-20.06-5.34-40.24-8.18-60.33-1.63-11.54-6.15-27.2-5.88-38.21.78-31.63,5.07-65.16,7.03-96.97,7.49-121.74,15.42-243.32,24.01-364.99l.93-2.07c22.85,1.28,46.07,2.85,69.07,4.57Z"/>
  <path class="cls-1" d="M493.98,310.11l45.05,313.94c-23.98,1.94-48.13,3.18-71.86-1.14-13.95-101.09-29.02-202.03-42.2-303.24l69.01-9.56Z"/>
  <polygon class="cls-1" points="908.03 446.05 835.03 446.05 902.65 192.98 968.07 211.52 969.05 213.54 908.03 446.05"/>
  <path class="cls-1" d="M468.04,279.05l-62.75,9.8-2.11-1.45-5.15-63.84c-5.13-48.9-9.93-97.84-12.03-146.97-.55-12.85-.74-25.69-.96-38.55l67.6-3.95,2.25,1.61,13.16,243.34Z"/>
  <polygon class="cls-1" points="181.03 446.05 107.53 446.05 38.07 234.46 39.71 232.23 102.6 211.06 181.03 446.05"/>
</svg>